<?xml version="1.0" encoding="utf-8"?>
<!-- Generator: Adobe Illustrator 14.0.0, SVG Export Plug-In . SVG Version: 6.00 Build 43363)  -->
<!DOCTYPE svg PUBLIC "-//W3C//DTD SVG 1.1//EN" "http://www.w3.org/Graphics/SVG/1.1/DTD/svg11.dtd">
<svg version="1.1" id="Layer_1" xmlns="http://www.w3.org/2000/svg" xmlns:xlink="http://www.w3.org/1999/xlink" x="0px" y="0px"
	 width="612px" height="792px" viewBox="0 0 612 792" enable-background="new 0 0 612 792" xml:space="preserve">
<g>
	<polygon fill-rule="evenodd" clip-rule="evenodd" fill="#FFFFFF" points="209,300 401.756,300 401.756,492.756 209,492.756 
		209,300 	"/>
	<path fill-rule="evenodd" clip-rule="evenodd" d="M280.355,424.431h-56.156v-56.148h56.156V424.431L280.355,424.431z
		 M277.399,371.239h-50.243v50.235h50.243V371.239L277.399,371.239z"/>
	<path fill-rule="evenodd" clip-rule="evenodd" d="M389.802,424.431v-56.148H277.401v56.148H389.802L389.802,424.431z
		 M280.357,421.475v-50.235h106.49v50.235H280.357L280.357,421.475z"/>
	<path fill-rule="evenodd" clip-rule="evenodd" d="M285.258,385.634v2.888c0,0,3.386,0,3.88,0c0,0.554,0,14.938,0,14.938h3.024
		c0,0,0-14.384,0-14.938c0.495,0,3.88,0,3.88,0v-2.888H285.258L285.258,385.634z"/>
	<path fill-rule="evenodd" clip-rule="evenodd" d="M303.571,392.404c1.639,0,2.223,1.007,2.223,1.951
		c0,1.224-0.832,1.954-2.223,1.954c0,0-2.893,0-3.382,0c0-0.469,0-3.436,0-3.905C300.678,392.404,303.571,392.404,303.571,392.404
		L303.571,392.404z M297.166,389.478v13.982h3.022c0,0,0-3.727,0-4.228c0.443,0,2.299,0,2.551,0
		c0.161,0.245,2.763,4.228,2.763,4.228h3.785c0,0-3.099-4.476-3.435-4.961c1.772-0.708,2.965-2.308,2.965-4.144
		c0-2.871-2.079-4.877-5.056-4.877H297.166L297.166,389.478z"/>
	<path fill-rule="evenodd" clip-rule="evenodd" d="M321.29,389.478h-10.455v13.982h10.743v-2.925c0,0-7.188,0-7.72,0
		c0-0.437,0-2.338,0-2.774c0.515,0,5.379,0,5.379,0v-2.925c0,0-4.864,0-5.379,0c0-0.42,0-2.012,0-2.432c0.532,0,7.72,0,7.72,0
		v-2.926H321.29L321.29,389.478z"/>
	<path fill-rule="evenodd" clip-rule="evenodd" d="M347.113,387.173h-10.496v2.924c0,0,3.387,0,3.881,0c0,0.552,0,13.362,0,13.362
		h3.022c0,0,0-12.811,0-13.362c0.495,0,3.882,0,3.882,0v-2.924H347.113L347.113,387.173z"/>
	<polygon fill-rule="evenodd" clip-rule="evenodd" points="351.882,387.182 349.148,387.182 349.148,403.46 352.17,403.46 
		352.17,387.182 351.882,387.182 	"/>
	<path fill-rule="evenodd" clip-rule="evenodd" d="M323.607,386.574v16.788h3.022c0,0,0-7.713,0-9.091
		c0.907,1.141,8.543,10.738,8.543,10.738v-17.84h-3.024c0,0,0,7.968,0,9.356c-0.908-1.146-8.541-10.778-8.541-10.778V386.574
		L323.607,386.574z"/>
	<path fill-rule="evenodd" clip-rule="evenodd" d="M354.46,384.544v18.818h3.024c0,0,0-8.669,0-10.174
		c0.92,1.281,8.542,11.889,8.542,11.889v-17.9h-3.023c0,0,0,6.946,0,8.401c-0.92-1.287-8.543-11.932-8.543-11.932V384.544
		L354.46,384.544z"/>
	<path fill-rule="evenodd" clip-rule="evenodd" d="M371.069,396.495c0-2.355,1.945-4.345,4.247-4.345
		c2.301,0,4.247,1.99,4.247,4.345c0,2.354-1.946,4.343-4.247,4.343C373.015,400.838,371.069,398.85,371.069,396.495L371.069,396.495
		z M367.918,396.495c0,4.076,3.25,7.267,7.398,7.267s7.398-3.19,7.398-7.267c0-4.077-3.25-7.27-7.398-7.27
		S367.918,392.418,367.918,396.495L367.918,396.495z"/>
	<path fill-rule="evenodd" clip-rule="evenodd" d="M271.848,381.883l-0.382,0.034c-12.128,1.043-20.053,6.884-23.991,10.666
		c0.026-0.269,0.047-0.556,0.047-0.869c0-1.498-0.363-2.78-1.08-3.809c-1.241-1.785-3.466-2.702-6.612-2.726l-0.293-0.002
		l-0.208,0.206c-3.071,3.072-4.629,5.917-4.629,8.458l0.02,0.477c0.099,1.267,0.577,2.177,1.044,2.793
		c-2.009,0.661-5.43,3.435-5.43,9.149l0.03,0.91l0.037,0.594l0.593,0.058c0.894,0.099,5.447,0.305,10.642-4.07
		c0.271,7.664,5.698,9.573,6.333,9.767c-0.003-0.001,0.181,0.065,0.181,0.065l0.13,0.045l0.287-0.179
		c3.876-2.402,5.913-4.82,6.409-7.609c0-0.001,0.115-1.304,0.115-1.304c0-1.479-0.436-2.647-0.86-3.455
		c16.754-4.967,18.082-14.612,18.082-17.467l-0.093-1.116c0.001,0.002-0.06-0.375-0.06-0.375l-0.043-0.264L271.848,381.883
		L271.848,381.883z M238.759,398.461c0.019-0.004,1.702-0.417,1.702-0.417l-1.5-0.871c-0.016-0.01-1.694-1.025-1.924-2.969
		c0-0.001-0.028-0.476-0.028-0.476c0-1.782,1.168-3.82,3.449-6.058c0.772,0.076,2.796,0.426,3.803,2.058
		c0.407,0.658,0.613,1.47,0.613,2.412c0,1.584-0.551,3.561-1.593,5.718c-2.601,5.38-8.634,7.176-10.128,7.287
		C233.23,403.206,233.987,399.298,238.759,398.461L238.759,398.461z M244.47,405.328c-0.133-0.529-0.2-1.078-0.2-1.63
		c0-1.572,0.546-3.235,1.624-4.944c6.823-10.823,19.469-13.101,22.786-13.52c-1.36,10.112-18.293,14.059-18.467,14.097l-1.316,0.285
		l0.987,0.914c1.316,1.22,1.984,2.52,1.984,3.864l-0.012,0.321c-0.139,1.782-1.405,3.582-3.729,5.351
		C246.169,408.74,244.928,407.15,244.47,405.328L244.47,405.328z"/>
	<path fill-rule="evenodd" clip-rule="evenodd" d="M262.709,378.516l-1.002,0.27l0.003-0.001c-5.294,1.365-9.173,3.463-11.051,4.948
		c-0.768-1.565-2.424-3.334-4.873-3.609c-0.001,0-0.408-0.045-0.408-0.045l-1.556,2.11l0.996,0.224
		c3.872,0.853,3.922,4.518,3.922,4.555c0,0.013,0.075,1.514,0.075,1.514l1.131-1.131c1.223-1.235,5.103-4.046,11.036-5.852
		c0.001,0,0.25-0.066,0.25-0.066l2.261-3.128L262.709,378.516L262.709,378.516z"/>
	<path fill-rule="evenodd" clip-rule="evenodd" d="M215.937,370.466c0,1.528,1.241,2.771,2.767,2.771
		c1.521,0,2.756-1.243,2.756-2.771c0-1.52-1.235-2.754-2.756-2.754C217.177,367.711,215.937,368.946,215.937,370.466
		L215.937,370.466z M216.441,370.466c0-1.304,0.952-2.25,2.262-2.25c1.305,0,2.251,0.946,2.251,2.25
		c0,1.313-0.947,2.266-2.251,2.266C217.394,372.731,216.441,371.778,216.441,370.466L216.441,370.466z"/>
	<path fill-rule="evenodd" clip-rule="evenodd" d="M217.561,368.978v2.857h0.487v-1.215l0.48,0.001l0.878,1.208h0.589
		c0,0-0.836-1.156-0.886-1.229c0.568-0.071,0.862-0.339,0.862-0.804c0-0.522-0.333-0.818-1.088-0.818H217.561L217.561,368.978z
		 M218.801,369.387c0.347,0,0.696,0.048,0.696,0.403c0,0.122-0.062,0.215-0.128,0.28c-0.153,0.15-0.46,0.145-0.729,0.142
		l-0.124-0.001h-0.471v-0.824H218.801L218.801,369.387z"/>
</g>
</svg>
